PathFileType	4	(X/Y/Z)	C:\Users\Basilio\Documents\Thesis Gigler\squatting_fais\c3dfiles\047\SLS_pre_back3\markers_experimental.trc
DataRate	CameraRate	NumFrames	NumMarkers	Units	OrigDataRate	OrigDataStartFrame	OrigNumFrames
200.000000	200.000000	4	61	mm	200.000000	955	1274
Frame#	Time	FHD			LBHD			RBHD			C7			T10			CLAV			LSHO			LUUPA			LMUPA			LDUPA			LLEP			LMEP			LRAD			LUL			LRFIN			RSHO			RUPA1			RMUPA			RDUPA			RLEP			RMEP			RRAD			RUL			RUFIN			LASI			RASI			USACR			LSACR			RSACR			LTHI1			LTHI2			LTHI3			LTHI4			LLFC			LTIB1			LTIB2			LTIB3			LTIB4			LLMAL			LMMAL			LMT1			LMT2			LMT5			RTHI			RTHI2			RTHI3			RTHI4			RLFC			RMFC			RTIB1			RTIB2			RTIB3			RTIB4			RLMAL			RMMAL			RHEE			RMT1			RMT2			RMT5			LMFC			*60			
		X1	Y1	Z1	X2	Y2	Z2	X3	Y3	Z3	X4	Y4	Z4	X5	Y5	Z5	X6	Y6	Z6	X7	Y7	Z7	X8	Y8	Z8	X9	Y9	Z9	X10	Y10	Z10	X11	Y11	Z11	X12	Y12	Z12	X13	Y13	Z13	X14	Y14	Z14	X15	Y15	Z15	X16	Y16	Z16	X17	Y17	Z17	X18	Y18	Z18	X19	Y19	Z19	X20	Y20	Z20	X21	Y21	Z21	X22	Y22	Z22	X23	Y23	Z23	X24	Y24	Z24	X25	Y25	Z25	X26	Y26	Z26	X27	Y27	Z27	X28	Y28	Z28	X29	Y29	Z29	X30	Y30	Z30	X31	Y31	Z31	X32	Y32	Z32	X33	Y33	Z33	X34	Y34	Z34	X35	Y35	Z35	X36	Y36	Z36	X37	Y37	Z37	X38	Y38	Z38	X39	Y39	Z39	X40	Y40	Z40	X41	Y41	Z41	X42	Y42	Z42	X43	Y43	Z43	X44	Y44	Z44	X45	Y45	Z45	X46	Y46	Z46	X47	Y47	Z47	X48	Y48	Z48	X49	Y49	Z49	X50	Y50	Z50	X51	Y51	Z51	X52	Y52	Z52	X53	Y53	Z53	X54	Y54	Z54	X55	Y55	Z55	X56	Y56	Z56	X57	Y57	Z57	X58	Y58	Z58	X59	Y59	Z59	X60	Y60	Z60	X61	Y61	Z61	

956	4.775	-18.63736915588379	1530.030517578125	-1133.456909179688	-195.0384674072266	1483.280517578125	-1152.298950195313	-166.4926147460938	1486.85107421875	-1005.677368164063	-213.024642944336	1337.411743164063	-1075.475708007813	-352.8077697753907	1084.097778320313	-1009.079040527344	-89.64699554443361	1236.597412109375	-1103.972900390625	-161.9245300292969	1263.7099609375	-1252.645263671875	-130.5278778076172	1117.42529296875	-1357.518310546875	-83.07950592041017	1136.1201171875	-1357.471069335938	-73.19739532470705	1080.031127929688	-1375.05224609375	-3.195184707641602	1058.432739257813	-1385.868896484375	-18.52871894836426	1004.639038085938	-1312.96337890625	177.3040466308594	1135.586791992188	-1218.333618164063	210.1833190917969	1067.231079101563	-1220.623168945313	265.2140808105469	1145.283935546875	-1214.239379882813	-88.3433303833008	1290.299926757813	-950.8784790039065	-14.09350299835205	1141.875366210938	-851.0567016601565	25.06563186645509	1152.652465820313	-877.8883056640627	38.53221893310548	1096.708129882813	-860.1868896484377	104.8703689575196	1066.9453125	-884.3520507812502	58.54229736328126	1007.340637207031	-933.949157714844	nan	nan	nan	258.7533874511719	1073.955322265625	-1098.046142578125	240.3179779052735	1160.065795898438	-1128.66943359375	-297.5352172851563	818.2309570312502	-1080.279052734375	-289.1896972656251	829.8833007812502	-854.4954223632815	-430.2741699218751	969.5718383789065	-975.3647460937502	-450.2921447753907	942.5385742187502	-1001.449279785156	-445.2873840332032	944.8794555664065	-942.5814208984377	-348.0411071777344	712.1776733398439	-1162.479858398438	-273.3410949707032	672.7712402343751	-1166.177856445313	-236.8110961914063	701.9274902343751	-1151.506713867188	-262.7996826171876	613.5070190429689	-1169.812744140625	-181.5387573242188	469.079559326172	-1143.319091796875	-197.5803680419922	306.1719970703126	-1030.720092773438	-222.3197326660157	257.3172302246094	-1098.173095703125	-209.4229888916016	254.3908691406251	-1053.866088867188	-257.2597351074219	195.864730834961	-1018.007019042969	-342.3668212890626	122.8281478881836	-1060.857055664063	-321.2965087890626	140.0045318603516	-971.8870239257815	-209.1638793945313	62.61723709106447	-990.490905761719	-206.9695739746094	62.74671554565431	-1034.671752929688	-257.9391479492188	51.7065773010254	-1078.251342773438	-388.3588256835939	672.9665527343751	-758.5852050781251	-349.9660949707032	618.2552490234376	-755.5322265625001	-320.0995483398438	618.0085449218751	-768.1524658203127	-377.2468261718751	538.3331909179689	-752.4719238281251	-378.4348144531251	407.3777160644532	-773.1085205078127	-378.6599426269532	384.7029724121095	-903.5772094726565	-485.7471313476564	338.0866394042969	-793.514343261719	-566.7327880859376	398.8172912597657	-748.4849853515626	-562.0200195312501	352.7314758300782	-756.9472045898439	-610.3930053710939	334.7729187011719	-788.501892089844	-766.4876098632814	388.4621582031251	-758.1469726562501	-749.8540039062501	351.4130554199219	-842.307556152344	-784.6885375976565	441.9508666992189	-818.3879394531252	-839.525573730469	238.9852294921876	-823.2722167968752	-840.715270996094	236.3409118652344	-777.2338867187502	-865.7161865234377	293.6088562011719	-732.6237792968751	-144.8448638916016	473.8519897460939	-1023.0390625	nan	nan	nan	
957	4.78	-20.22123146057129	1532.7890625	-1133.330322265625	-196.5155334472657	1485.626342773438	-1152.298583984375	-167.6837310791016	1489.533203125	-1006.024536132813	-214.5837097167969	1339.55126953125	-1075.291259765625	-352.8991394042969	1085.633544921875	-1009.106201171875	-90.40588378906251	1239.213500976563	-1104.213134765625	-163.0943298339844	1265.812255859375	-1252.451171875	-131.3812255859375	1119.84326171875	-1357.407104492188	-84.12650299072267	1138.548461914063	-1357.465087890625	-74.04235839843751	1082.462524414063	-1375.080444335938	-4.095183372497559	1061.085205078125	-1385.854248046875	-18.92703819274903	1007.097778320313	-1312.942016601563	176.1735382080078	1138.335815429688	-1217.74658203125	210.0193481445313	1069.88916015625	-1220.611083984375	264.5138244628907	1148.230590820313	-1214.315795898438	-89.26029205322267	1292.923706054688	-950.8465576171877	-14.95964431762696	1144.320922851563	-851.110290527344	24.39032363891602	1155.282958984375	-878.2148437500002	38.08049011230469	1099.273559570313	-860.331481933594	104.0105285644532	1069.615112304688	-884.340515136719	57.90651702880861	1009.988037109375	-933.8308715820315	nan	nan	nan	257.8649902343751	1076.5595703125	-1097.815673828125	239.4626464843751	1162.778442382813	-1128.733764648438	-297.4145507812501	820.395935058594	-1080.62939453125	-288.7215270996094	831.4213867187502	-854.6505126953127	-429.4870910644532	970.8057861328127	-975.7678833007815	-450.2395324707032	944.107360839844	-1001.447143554688	-445.1191711425782	946.5139160156252	-942.6618652343752	-348.0570983886719	713.3394775390626	-1162.416870117188	-273.3519592285157	673.5468750000001	-1166.256469726563	-236.4787292480469	702.9535522460939	-1152.138061523438	-263.2013244628907	614.2990112304689	-1169.884399414063	-182.2101440429688	469.2945861816407	-1143.4892578125	-198.0848236083985	306.6188354492188	-1031.0283203125	-218.8489685058594	259.0925292968751	-1099.973266601563	-209.8854980468751	254.7997741699219	-1054.067138671875	-257.4132690429688	195.9862823486329	-1018.090270996094	-342.4213256835938	122.8482284545899	-1060.806640625	-321.3645324707032	139.9209594726563	-971.8629150390627	-209.1880340576172	62.63645553588869	-990.474304199219	-206.9697265625001	62.8033905029297	-1034.689331054688	-257.9736328125001	51.7196731567383	-1078.292846679688	-387.5484008789064	674.7017211914064	-758.6376953125001	-349.0507202148438	620.1306152343751	-755.5922851562501	-319.2088317871094	619.8931884765626	-768.1426391601565	-376.0745239257813	540.1389770507814	-752.5535888671876	-377.4869384765626	409.1065063476564	-772.834899902344	-377.5713500976563	385.5621948242189	-903.3581542968752	-485.3151855468751	339.2126770019532	-794.1867675781252	-565.6694946289064	400.3192138671876	-748.1365356445314	-560.9810791015626	354.0587463378907	-756.6431274414064	-609.2938232421876	336.2367553710938	-788.5027465820315	-765.7707519531251	389.7228088378907	-757.0317382812501	-748.9335327148439	352.7717895507813	-841.8759765625002	-783.8587646484377	443.280975341797	-817.839050292969	-838.5981445312502	240.9932556152344	-822.9465942382815	-840.1096191406252	237.2633056640626	-777.6348266601565	-864.654235839844	294.4542236328126	-732.0388793945314	-145.358383178711	474.2058105468751	-1023.445373535156	nan	nan	nan	
958	4.785	-21.98640441894532	1535.415649414063	-1133.0986328125	-198.2155761718751	1487.963500976563	-1152.402587890625	-169.3907318115235	1491.892211914063	-1005.998840332031	-215.5240936279297	1341.899536132813	-1075.364135742188	-353.3045043945313	1087.303344726563	-1009.141967773438	-91.26033782958986	1241.604858398438	-1104.25	-163.9160614013672	1268.516845703125	-1252.66357421875	-131.9958190917969	1122.029907226563	-1357.47021484375	-84.10350799560548	1140.880126953125	-1357.70654296875	-74.50247192382814	1084.73291015625	-1375.040283203125	-4.266187191009522	1063.375366210938	-1385.776123046875	-19.65398979187012	1009.758422851563	-1312.94287109375	175.718017578125	1141.084228515625	-1218.051025390625	209.2768859863282	1072.616455078125	-1220.513427734375	263.7235107421876	1151.033447265625	-1214.25732421875	-90.43791961669923	1295.357055664063	-950.7430419921877	-15.67457866668702	1146.83935546875	-850.9395141601565	23.43569374084473	1158.084106445313	-878.5586547851565	37.30651473999024	1101.87548828125	-860.253356933594	103.1754837036133	1072.177368164063	-884.334899902344	57.23789596557619	1012.646057128906	-933.8509521484377	nan	nan	nan	257.1325988769532	1079.434204101563	-1098.278076171875	238.9742431640626	1165.765258789063	-1128.717163085938	-297.1968994140626	821.772644042969	-1080.634643554688	-288.2339477539063	833.487243652344	-854.8034667968752	-430.1714172363282	972.6289672851565	-975.5471191406252	-449.8597106933595	945.516784667969	-1001.469848632813	-444.6783447265626	947.7783813476565	-942.6599731445315	-348.0162658691407	714.4335327148439	-1162.492431640625	-273.5246582031251	674.4664306640626	-1166.457763671875	-236.4123840332032	703.5944824218751	-1152.30712890625	-263.6402893066407	615.0360717773439	-1170.08056640625	-183.0779724121094	469.7571716308595	-1143.688720703125	-198.5934295654297	306.7041320800782	-1031.042602539063	-218.9328155517579	259.9496765136719	-1100.083374023438	-210.2443389892579	255.0124969482422	-1054.27587890625	-257.5149230957032	196.1118469238282	-1018.20068359375	-342.4991760253907	122.8605422973633	-1060.77978515625	-321.5513610839844	139.850814819336	-971.7686157226565	-209.3419036865235	62.51955795288087	-990.429870605469	-207.0330047607422	62.71922302246095	-1034.71142578125	-257.9710693359376	51.69136428833009	-1078.310302734375	-386.7921752929689	676.2777709960939	-758.5010986328126	-347.8798522949219	621.9213256835939	-755.8916625976564	-318.0736999511719	621.9908447265626	-768.310974121094	-375.0834350585938	541.9138793945314	-752.7218627929689	-376.7579650878907	410.7248840332032	-772.410827636719	-376.3276672363282	387.1414489746095	-903.0673828125002	-486.032196044922	339.9296569824219	-795.657897949219	-565.0637207031251	401.7734680175782	-747.5540771484376	-560.1345825195314	355.6533813476563	-756.2812500000001	-608.5059204101564	337.8091125488282	-787.3511962890627	-764.9263305664064	390.9531250000001	-756.6557006835939	-747.7131958007814	353.9012451171876	-841.5195312500002	-783.0086669921877	444.3847656250001	-817.6777343750002	-837.1726684570315	242.1285400390626	-822.4588623046877	-838.9172363281252	238.3977203369141	-776.3709106445315	-863.431579589844	295.7863159179688	-731.7395629882814	-146.0855712890625	474.6236877441407	-1023.760314941406	-477.8640136718751	341.9370422363282	-783.4410400390627	
959	4.79	-23.72220611572266	1537.934326171875	-1133.210693359375	-199.5409240722657	1490.350830078125	-1152.334350585938	-171.1157684326172	1494.247436523438	-1006.065734863281	-216.978988647461	1343.985595703125	-1075.17333984375	-353.6302185058594	1089.008911132813	-1009.231262207031	-92.36074829101564	1244.315673828125	-1104.155639648438	-165.0073852539063	1270.918334960938	-1252.712524414063	-132.8907318115235	1124.440551757813	-1357.556640625	-85.46276855468751	1143.452758789063	-1357.675537109375	-75.53627777099611	1087.315795898438	-1374.986206054688	-5.464695930480958	1066.08203125	-1385.757690429688	-20.54495239257813	1012.2509765625	-1312.951538085938	174.855453491211	1144.033325195313	-1217.9677734375	207.7482452392579	1075.605346679688	-1220.206298828125	262.8403320312501	1153.729736328125	-1214.206665039063	-91.67740631103517	1297.731323242188	-950.8859863281252	-16.62710189819336	1149.3125	-850.956481933594	22.35216903686524	1160.505859375	-878.5176391601565	36.26078796386719	1104.48486328125	-860.3745117187502	102.598014831543	1074.83349609375	-884.3735961914065	56.30892181396486	1015.306945800781	-933.721618652344	nan	nan	nan	256.0482177734376	1081.844848632813	-1097.769165039063	238.3804168701172	1168.50244140625	-1128.734130859375	-296.6925354003907	823.4119873046877	-1080.945068359375	-287.5636291503907	835.0108032226565	-854.9658813476565	-429.233367919922	973.8338012695315	-975.8870239257815	-449.443084716797	946.8345947265627	-1001.474487304688	-444.6651306152345	949.4160156250002	-942.5897216796877	-347.8691101074219	715.4224853515626	-1162.562622070313	-273.5235900878907	675.2399291992189	-1166.591796875	-236.2606353759766	704.2312011718751	-1152.588256835938	-263.9094543457032	615.6868286132814	-1170.214477539063	-183.9972229003907	470.271697998047	-1143.795654296875	-199.1855468750001	307.0025634765626	-1030.879638671875	-224.0062408447266	258.1029968261719	-1098.403930664063	-210.6115722656251	255.1374664306641	-1054.16748046875	-257.6222229003907	196.1869354248047	-1018.338928222656	-342.5777893066407	122.8881988525391	-1060.744750976563	-321.6351928710938	139.8123016357422	-971.8417968750002	-209.3724517822266	62.50782394409181	-990.4582519531252	-207.0368041992188	62.77286529541017	-1034.71875	-257.9703979492188	51.75584793090822	-1078.276733398438	-385.9715576171876	678.0068969726564	-758.4521484375001	-347.3197631835938	623.4113159179689	-755.6663818359376	-317.2251586914063	623.3892822265626	-767.9329833984376	-374.5318603515626	543.5205688476564	-752.2996215820314	-375.6414184570313	412.2792053222657	-772.4409179687502	-375.0115051269532	388.661590576172	-902.7148437500002	-486.1958618164064	340.9272155761719	-796.3568115234377	-563.9041137695314	403.261444091797	-747.4262695312501	-559.1512451171876	357.1669921875001	-755.9472656250001	-607.5751953125001	339.1026611328126	-787.4089965820315	-763.8522949218751	392.1165771484376	-756.6591796875001	-747.5245971679689	355.2630615234376	-841.4671020507815	-782.1904907226565	445.5992431640626	-817.3621215820315	-836.473815917969	243.135482788086	-821.4532470703127	-837.7259521484377	239.8745422363282	-776.0996093750002	-862.3039550781252	296.8525085449219	-731.2189331054689	-146.6186218261719	474.8344116210939	-1023.747863769531	-476.7154541015626	343.4369201660157	-783.1951293945315	
